<svg width="24.000000" height="24.000000" viewBox="0 0 24 24" fill="none" xmlns="http://www.w3.org/2000/svg" xmlns:xlink="http://www.w3.org/1999/xlink">
	<desc>
			Created with Pixso.
	</desc>
	<defs>
		<clipPath id="clip1_26">
			<rect id="bx:bxs-check-circle" width="24.000000" height="24.000000" fill="white" fill-opacity="0"/>
		</clipPath>
	</defs>
	<rect id="bx:bxs-check-circle" width="24.000000" height="24.000000" fill="#FFFFFF" fill-opacity="0"/>
	<g clip-path="url(#clip1_26)">
		<path id="Vector" d="M12 2C6.48 2 2 6.48 2 12C2 17.51 6.48 22 12 22C17.51 22 22 17.51 22 12C22 6.48 17.51 2 12 2ZM10 16.41L6.99 13.41C6.6 13.02 6.6 12.39 6.99 12C7.38 11.6 8.01 11.6 8.4 11.99L9.99 13.58L14.58 9C14.97 8.6 15.6 8.6 16 9C16.39 9.39 16.39 10.02 16 10.41L10 16.41Z" fill="#2FAB73" fill-opacity="1.000000" fill-rule="nonzero"/>
	</g>
</svg>
